<svg width="14" height="14" viewBox="0 0 14 14" fill="none" xmlns="http://www.w3.org/2000/svg">
<path fill-rule="evenodd" clip-rule="evenodd" d="M11 7C11 6.44772 10.5523 6 10 6C9.44772 6 9 6.44772 9 7V9H7C6.44772 9 6 9.44772 6 10C6 10.5523 6.44772 11 7 11H9V13C9 13.5523 9.44772 14 10 14C10.5523 14 11 13.5523 11 13V11H13C13.5523 11 14 10.5523 14 10C14 9.44771 13.5523 9 13 9H11V7Z" fill="white"/>
<path opacity="0.5" fill-rule="evenodd" clip-rule="evenodd" d="M5 1C5 0.447715 4.55228 0 4 0C3.44772 0 3 0.447715 3 1V3H1C0.447715 3 0 3.44772 0 4C0 4.55228 0.447715 5 1 5H3V7C3 7.55228 3.44772 8 4 8C4.55228 8 5 7.55228 5 7V5H7C7.55228 5 8 4.55228 8 4C8 3.44772 7.55228 3 7 3H5V1Z" fill="white"/>
</svg>
