<svg width="36" height="36" viewBox="0 0 36 36" fill="none" xmlns="http://www.w3.org/2000/svg">
<g clip-path="url(#clip0)">
<path fill-rule="evenodd" clip-rule="evenodd" d="M22.8615 15.7726C21.4253 13.2373 19.0501 11.3927 16.2586 10.6447C10.4495 9.08818 4.44868 12.6184 2.86647 18.5233C1.28427 24.4281 4.71597 30.4858 10.5251 32.0424C16.3381 33.5999 22.334 30.0726 23.9172 24.1638L18.6546 22.7537C17.8629 25.7081 14.865 27.4718 11.9585 26.693C9.05392 25.9147 7.33806 22.8858 8.12917 19.9334C8.92027 16.981 11.9207 15.2159 14.8252 15.9941C16.221 16.3681 17.4086 17.2904 18.1267 18.5581L22.8615 15.7726Z" fill="white"/>
<path d="M20.7722 8.74495L20.5664 5.70174L23.8586 7.65809L25.1788 2.44116L27.1509 7.87546L30.0315 5.91911L30.2373 10.2666L34.5584 10.0492L31.0604 13.0924L33.118 15.4835L29.62 17.0051" stroke="white" stroke-width="1.25617" stroke-miterlimit="1.5" stroke-linecap="round" stroke-linejoin="round"/>
</g>
<defs>
<clipPath id="clip0">
<rect width="36" height="36" fill="white"/>
</clipPath>
</defs>
</svg>
