<svg width="36" height="36" viewBox="0 0 36 36" fill="none" xmlns="http://www.w3.org/2000/svg">
<path fill-rule="evenodd" clip-rule="evenodd" d="M22.8615 15.7726C21.4253 13.2373 19.0501 11.3927 16.2586 10.6447C10.4495 9.08819 4.44868 12.6184 2.86647 18.5233C1.28427 24.4281 4.71597 30.4858 10.5251 32.0424C16.3381 33.6 22.334 30.0726 23.9172 24.1638L18.6546 22.7537C17.8629 25.7081 14.865 27.4718 11.9585 26.693C9.05392 25.9147 7.33806 22.8858 8.12917 19.9334C8.92027 16.981 11.9207 15.2159 14.8252 15.9942C16.221 16.3681 17.4086 17.2904 18.1267 18.5581L22.8615 15.7726Z" fill="white"/>
<path d="M25.1081 1.01717C25.6923 0.984784 26.2298 1.35366 26.4392 1.93074L27.8171 5.72782L29.3016 4.71964C29.7068 4.44446 30.2201 4.41825 30.6486 4.65087C31.077 4.88348 31.3556 5.33967 31.3797 5.84792L31.5182 8.77455L34.4941 8.62485C35.075 8.59563 35.6083 8.96271 35.8177 9.53587C36.027 10.109 35.8653 10.7594 35.4164 11.1499L33.0126 13.2412L34.1168 14.5243C34.4127 14.8682 34.5315 15.3429 34.4349 15.7963C34.3384 16.2498 34.0388 16.6251 33.6319 16.802L30.134 18.3237C29.4446 18.6235 28.6557 18.2763 28.3719 17.548C28.088 16.8198 28.4167 15.9864 29.1061 15.6865L30.8251 14.9388L30.0616 14.0516C29.8131 13.7628 29.6875 13.3791 29.7141 12.9898C29.7406 12.6005 29.9171 12.2398 30.2023 11.9917L30.5631 11.6778L30.3015 11.6909C29.5581 11.7283 28.9263 11.123 28.8892 10.3378L28.7999 8.45078L27.8808 9.07496C27.539 9.30704 27.1165 9.36418 26.7305 9.23052C26.3444 9.09687 26.0359 8.78664 25.8905 8.38591L25.4081 7.05654L25.1626 8.02637C25.0549 8.45208 24.7669 8.80125 24.3825 8.97228C23.9981 9.14331 23.5604 9.11697 23.1969 8.90093L22.0916 8.24412L22.1186 8.64337C22.1717 9.4289 21.6119 10.1112 20.8683 10.1673C20.1248 10.2234 19.4789 9.63209 19.4258 8.84656L19.22 5.80335C19.1846 5.2799 19.4243 4.77821 19.8439 4.49729C20.2635 4.21638 20.7952 4.20164 21.2282 4.45892L23.004 5.51415L23.8748 2.0729C24.0259 1.47584 24.5238 1.04956 25.1081 1.01717Z" fill="white"/>
</svg>
