<svg width="155" height="46" viewBox="0 0 155 46" fill="none" xmlns="http://www.w3.org/2000/svg">
<path d="M17.8882 36.384C14.8162 36.384 12.3842 34.528 13.6002 28.832C14.8162 23.008 18.0162 21.28 21.0882 21.28C23.2642 21.28 24.9282 22.048 25.5042 24.352H34.9762C35.0402 17.312 31.2642 12 23.0722 12C13.4722 12 6.49621 19.424 4.51221 28.832C2.52821 38.112 6.30421 45.664 15.9042 45.664C23.9042 45.664 30.1122 40.288 33.0562 33.376H23.5842C21.9842 35.552 19.9362 36.384 17.8882 36.384Z" fill="#5674DE"/>
<path d="M51.6662 14.944L52.1142 12.768H43.1542L36.3702 44.768H45.3302L49.2342 26.208C49.9382 22.88 53.1382 21.152 55.8902 21.152C58.7062 21.152 61.1382 22.88 60.4342 26.208L56.5302 44.768H65.4902L69.3942 26.208C71.4422 16.736 66.3222 12 60.1782 12C57.3622 12 54.2902 12.96 51.6662 14.944Z" fill="#5674DE"/>
<path d="M94.5562 20.448L96.2202 12.896H89.5002L91.3562 4H82.3962L80.5402 12.896H76.1242L74.4602 20.448H78.8762L76.3802 32.416C74.0122 43.424 81.2442 45.088 85.9162 45.088C87.9002 45.088 89.4362 44.768 89.4362 44.768L91.2922 35.808C91.2922 35.808 89.8842 36.256 88.4122 36.256C86.6202 36.256 84.6362 35.552 85.3402 32.416L87.8362 20.448H94.5562Z" fill="#5674DE"/>
<path d="M111.326 36.384C108.254 36.384 105.822 34.528 107.038 28.832C108.254 23.008 111.454 21.28 114.526 21.28C116.702 21.28 118.366 22.048 118.942 24.352H128.414C128.478 17.312 124.702 12 116.51 12C106.91 12 99.9337 19.424 97.9497 28.832C95.9657 38.112 99.7417 45.664 109.342 45.664C117.342 45.664 123.55 40.288 126.494 33.376H117.022C115.422 35.552 113.374 36.384 111.326 36.384Z" fill="#5674DE"/>
<path d="M153.119 20.448L154.783 12.896H148.063L149.919 4H140.959L139.103 12.896H134.687L133.023 20.448H137.439L134.943 32.416C132.575 43.424 139.807 45.088 144.479 45.088C146.463 45.088 147.999 44.768 147.999 44.768L149.855 35.808C149.855 35.808 148.447 36.256 146.975 36.256C145.183 36.256 143.199 35.552 143.903 32.416L146.399 20.448H153.119Z" fill="#5674DE"/>
<path d="M13.8882 32.384C10.8162 32.384 8.38421 30.528 9.60021 24.832C10.8162 19.008 14.0162 17.28 17.0882 17.28C19.2642 17.28 20.9282 18.048 21.5042 20.352H30.9762C31.0402 13.312 27.2642 8 19.0722 8C9.47221 8 2.49621 15.424 0.512207 24.832C-1.47179 34.112 2.30421 41.664 11.9042 41.664C19.9042 41.664 26.1122 36.288 29.0562 29.376H19.5842C17.9842 31.552 15.9362 32.384 13.8882 32.384Z" fill="white"/>
<path d="M47.6662 10.944L48.1142 8.768H39.1542L32.3702 40.768H41.3302L45.2342 22.208C45.9382 18.88 49.1382 17.152 51.8902 17.152C54.7062 17.152 57.1382 18.88 56.4342 22.208L52.5302 40.768H61.4902L65.3942 22.208C67.4422 12.736 62.3222 8 56.1782 8C53.3622 8 50.2902 8.96 47.6662 10.944Z" fill="white"/>
<path d="M90.5562 16.448L92.2202 8.896H85.5002L87.3562 0H78.3962L76.5402 8.896H72.1242L70.4602 16.448H74.8762L72.3802 28.416C70.0122 39.424 77.2442 41.088 81.9162 41.088C83.9002 41.088 85.4362 40.768 85.4362 40.768L87.2922 31.808C87.2922 31.808 85.8842 32.256 84.4122 32.256C82.6202 32.256 80.6362 31.552 81.3402 28.416L83.8362 16.448H90.5562Z" fill="white"/>
<path d="M107.326 32.384C104.254 32.384 101.822 30.528 103.038 24.832C104.254 19.008 107.454 17.28 110.526 17.28C112.702 17.28 114.366 18.048 114.942 20.352H124.414C124.478 13.312 120.702 8 112.51 8C102.91 8 95.9337 15.424 93.9497 24.832C91.9657 34.112 95.7417 41.664 105.342 41.664C113.342 41.664 119.55 36.288 122.494 29.376H113.022C111.422 31.552 109.374 32.384 107.326 32.384Z" fill="white"/>
<path d="M149.119 16.448L150.783 8.896H144.063L145.919 0H136.959L135.103 8.896H130.687L129.023 16.448H133.439L130.943 28.416C128.575 39.424 135.807 41.088 140.479 41.088C142.463 41.088 143.999 40.768 143.999 40.768L145.855 31.808C145.855 31.808 144.447 32.256 142.975 32.256C141.183 32.256 139.199 31.552 139.903 28.416L142.399 16.448H149.119Z" fill="white"/>
</svg>
