<svg width="155" height="72" viewBox="0 0 155 72" fill="none" xmlns="http://www.w3.org/2000/svg">
<path d="M17.8882 49.384C14.8162 49.384 12.3842 47.528 13.6002 41.832C14.8162 36.008 18.0162 34.28 21.0882 34.28C23.2642 34.28 24.9282 35.048 25.5042 37.352H34.9762C35.0402 30.312 31.2642 25 23.0722 25C13.4722 25 6.49621 32.424 4.51221 41.832C2.52821 51.112 6.30421 58.664 15.9042 58.664C23.9042 58.664 30.1122 53.288 33.0562 46.376H23.5842C21.9842 48.552 19.9362 49.384 17.8882 49.384Z" fill="#5674DE"/>
<path d="M17.8882 49.384C14.8162 49.384 12.3842 47.528 13.6002 41.832C14.8162 36.008 18.0162 34.28 21.0882 34.28C23.2642 34.28 24.9282 35.048 25.5042 37.352H34.9762C35.0402 30.312 31.2642 25 23.0722 25C13.4722 25 6.49621 32.424 4.51221 41.832C2.52821 51.112 6.30421 58.664 15.9042 58.664C23.9042 58.664 30.1122 53.288 33.0562 46.376H23.5842C21.9842 48.552 19.9362 49.384 17.8882 49.384Z" fill="url(#paint0_linear)" fill-opacity="0.03"/>
<path d="M51.6662 27.944L52.1142 25.768H43.1542L36.3702 57.768H45.3302L49.2342 39.208C49.9382 35.88 53.1382 34.152 55.8902 34.152C58.7062 34.152 61.1382 35.88 60.4342 39.208L56.5302 57.768H65.4902L69.3942 39.208C71.4422 29.736 66.3222 25 60.1782 25C57.3622 25 54.2902 25.96 51.6662 27.944Z" fill="#5674DE"/>
<path d="M51.6662 27.944L52.1142 25.768H43.1542L36.3702 57.768H45.3302L49.2342 39.208C49.9382 35.88 53.1382 34.152 55.8902 34.152C58.7062 34.152 61.1382 35.88 60.4342 39.208L56.5302 57.768H65.4902L69.3942 39.208C71.4422 29.736 66.3222 25 60.1782 25C57.3622 25 54.2902 25.96 51.6662 27.944Z" fill="url(#paint1_linear)" fill-opacity="0.03"/>
<path d="M94.5562 33.448L96.2202 25.896H89.5002L91.3562 17H82.3962L80.5402 25.896H76.1242L74.4602 33.448H78.8762L76.3802 45.416C74.0122 56.424 81.2442 58.088 85.9162 58.088C87.9002 58.088 89.4362 57.768 89.4362 57.768L91.2922 48.808C91.2922 48.808 89.8842 49.256 88.4122 49.256C86.6202 49.256 84.6362 48.552 85.3402 45.416L87.8362 33.448H94.5562Z" fill="#5674DE"/>
<path d="M94.5562 33.448L96.2202 25.896H89.5002L91.3562 17H82.3962L80.5402 25.896H76.1242L74.4602 33.448H78.8762L76.3802 45.416C74.0122 56.424 81.2442 58.088 85.9162 58.088C87.9002 58.088 89.4362 57.768 89.4362 57.768L91.2922 48.808C91.2922 48.808 89.8842 49.256 88.4122 49.256C86.6202 49.256 84.6362 48.552 85.3402 45.416L87.8362 33.448H94.5562Z" fill="url(#paint2_linear)" fill-opacity="0.03"/>
<path d="M111.326 49.384C108.254 49.384 105.822 47.528 107.038 41.832C108.254 36.008 111.454 34.28 114.526 34.28C116.702 34.28 118.366 35.048 118.942 37.352H128.414C128.478 30.312 124.702 25 116.51 25C106.91 25 99.9337 32.424 97.9497 41.832C95.9657 51.112 99.7417 58.664 109.342 58.664C117.342 58.664 123.55 53.288 126.494 46.376H117.022C115.422 48.552 113.374 49.384 111.326 49.384Z" fill="#5674DE"/>
<path d="M111.326 49.384C108.254 49.384 105.822 47.528 107.038 41.832C108.254 36.008 111.454 34.28 114.526 34.28C116.702 34.28 118.366 35.048 118.942 37.352H128.414C128.478 30.312 124.702 25 116.51 25C106.91 25 99.9337 32.424 97.9497 41.832C95.9657 51.112 99.7417 58.664 109.342 58.664C117.342 58.664 123.55 53.288 126.494 46.376H117.022C115.422 48.552 113.374 49.384 111.326 49.384Z" fill="url(#paint3_linear)" fill-opacity="0.03"/>
<path d="M153.119 33.448L154.783 25.896H148.063L149.919 17H140.959L139.103 25.896H134.687L133.023 33.448H137.439L134.943 45.416C132.575 56.424 139.807 58.088 144.479 58.088C146.463 58.088 147.999 57.768 147.999 57.768L149.855 48.808C149.855 48.808 148.447 49.256 146.975 49.256C145.183 49.256 143.199 48.552 143.903 45.416L146.399 33.448H153.119Z" fill="#5674DE"/>
<path d="M153.119 33.448L154.783 25.896H148.063L149.919 17H140.959L139.103 25.896H134.687L133.023 33.448H137.439L134.943 45.416C132.575 56.424 139.807 58.088 144.479 58.088C146.463 58.088 147.999 57.768 147.999 57.768L149.855 48.808C149.855 48.808 148.447 49.256 146.975 49.256C145.183 49.256 143.199 48.552 143.903 45.416L146.399 33.448H153.119Z" fill="url(#paint4_linear)" fill-opacity="0.03"/>
<path d="M13.8882 45.384C10.8162 45.384 8.38421 43.528 9.60021 37.832C10.8162 32.008 14.0162 30.28 17.0882 30.28C19.2642 30.28 20.9282 31.048 21.5042 33.352H30.9762C31.0402 26.312 27.2642 21 19.0722 21C9.47221 21 2.49621 28.424 0.512207 37.832C-1.47179 47.112 2.30421 54.664 11.9042 54.664C19.9042 54.664 26.1122 49.288 29.0562 42.376H19.5842C17.9842 44.552 15.9362 45.384 13.8882 45.384Z" fill="white"/>
<path d="M47.6662 23.944L48.1142 21.768H39.1542L32.3702 53.768H41.3302L45.2342 35.208C45.9382 31.88 49.1382 30.152 51.8902 30.152C54.7062 30.152 57.1382 31.88 56.4342 35.208L52.5302 53.768H61.4902L65.3942 35.208C67.4422 25.736 62.3222 21 56.1782 21C53.3622 21 50.2902 21.96 47.6662 23.944Z" fill="white"/>
<path d="M90.5562 29.448L92.2202 21.896H85.5002L87.3562 13H78.3962L76.5402 21.896H72.1242L70.4602 29.448H74.8762L72.3802 41.416C70.0122 52.424 77.2442 54.088 81.9162 54.088C83.9002 54.088 85.4362 53.768 85.4362 53.768L87.2922 44.808C87.2922 44.808 85.8842 45.256 84.4122 45.256C82.6202 45.256 80.6362 44.552 81.3402 41.416L83.8362 29.448H90.5562Z" fill="white"/>
<path d="M107.326 45.384C104.254 45.384 101.822 43.528 103.038 37.832C104.254 32.008 107.454 30.28 110.526 30.28C112.702 30.28 114.366 31.048 114.942 33.352H124.414C124.478 26.312 120.702 21 112.51 21C102.91 21 95.9337 28.424 93.9497 37.832C91.9657 47.112 95.7417 54.664 105.342 54.664C113.342 54.664 119.55 49.288 122.494 42.376H113.022C111.422 44.552 109.374 45.384 107.326 45.384Z" fill="white"/>
<path d="M149.119 29.448L150.783 21.896H144.063L145.919 13H136.959L135.103 21.896H130.687L129.023 29.448H133.439L130.943 41.416C128.575 52.424 135.807 54.088 140.479 54.088C142.463 54.088 143.999 53.768 143.999 53.768L145.855 44.808C145.855 44.808 144.447 45.256 142.975 45.256C141.183 45.256 139.199 44.552 139.903 41.416L142.399 29.448H149.119Z" fill="white"/>
<defs>
<linearGradient id="paint0_linear" x1="79.3914" y1="17" x2="79.3914" y2="58.664" gradientUnits="userSpaceOnUse">
<stop stop-color="white"/>
<stop offset="1" stop-color="white" stop-opacity="0"/>
</linearGradient>
<linearGradient id="paint1_linear" x1="79.3914" y1="17" x2="79.3914" y2="58.664" gradientUnits="userSpaceOnUse">
<stop stop-color="white"/>
<stop offset="1" stop-color="white" stop-opacity="0"/>
</linearGradient>
<linearGradient id="paint2_linear" x1="79.3914" y1="17" x2="79.3914" y2="58.664" gradientUnits="userSpaceOnUse">
<stop stop-color="white"/>
<stop offset="1" stop-color="white" stop-opacity="0"/>
</linearGradient>
<linearGradient id="paint3_linear" x1="79.3914" y1="17" x2="79.3914" y2="58.664" gradientUnits="userSpaceOnUse">
<stop stop-color="white"/>
<stop offset="1" stop-color="white" stop-opacity="0"/>
</linearGradient>
<linearGradient id="paint4_linear" x1="79.3914" y1="17" x2="79.3914" y2="58.664" gradientUnits="userSpaceOnUse">
<stop stop-color="white"/>
<stop offset="1" stop-color="white" stop-opacity="0"/>
</linearGradient>
</defs>
</svg>
