<svg width="158" height="72" viewBox="0 0 158 72" fill="none" xmlns="http://www.w3.org/2000/svg">
<path d="M20.768 49.552C17.696 49.552 15.264 47.696 16.48 42C17.696 36.176 20.896 34.448 23.968 34.448C26.144 34.448 27.808 35.216 28.384 37.52H37.856C37.92 30.48 34.144 25.168 25.952 25.168C16.352 25.168 9.376 32.592 7.392 42C5.408 51.28 9.184 58.832 18.784 58.832C26.784 58.832 32.992 53.456 35.936 46.544H26.464C24.864 48.72 22.816 49.552 20.768 49.552ZM54.546 28.112L54.994 25.936H46.034L39.25 57.936H48.21L52.114 39.376C52.818 36.048 56.018 34.32 58.77 34.32C61.586 34.32 64.018 36.048 63.314 39.376L59.41 57.936H68.37L72.274 39.376C74.322 29.904 69.202 25.168 63.058 25.168C60.242 25.168 57.17 26.128 54.546 28.112ZM97.436 33.616L99.1 26.064H92.38L94.236 17.168H85.276L83.42 26.064H79.004L77.34 33.616H81.756L79.26 45.584C76.892 56.592 84.124 58.256 88.796 58.256C90.78 58.256 92.316 57.936 92.316 57.936L94.172 48.976C94.172 48.976 92.764 49.424 91.292 49.424C89.5 49.424 87.516 48.72 88.22 45.584L90.716 33.616H97.436ZM114.206 49.552C111.134 49.552 108.702 47.696 109.918 42C111.134 36.176 114.333 34.448 117.406 34.448C119.582 34.448 121.246 35.216 121.822 37.52H131.294C131.358 30.48 127.582 25.168 119.39 25.168C109.79 25.168 102.814 32.592 100.83 42C98.8455 51.28 102.622 58.832 112.222 58.832C120.222 58.832 126.43 53.456 129.374 46.544H119.902C118.302 48.72 116.253 49.552 114.206 49.552ZM155.999 33.616L157.663 26.064H150.943L152.799 17.168H143.839L141.983 26.064H137.567L135.903 33.616H140.319L137.823 45.584C135.455 56.592 142.687 58.256 147.359 58.256C149.343 58.256 150.878 57.936 150.878 57.936L152.735 48.976C152.735 48.976 151.327 49.424 149.855 49.424C148.062 49.424 146.079 48.72 146.783 45.584L149.279 33.616H155.999Z" fill="#5674DE"/>
<path d="M16.768 45.552C13.696 45.552 11.264 43.696 12.48 38C13.696 32.176 16.896 30.448 19.968 30.448C22.144 30.448 23.808 31.216 24.384 33.52H33.856C33.92 26.48 30.144 21.168 21.952 21.168C12.352 21.168 5.376 28.592 3.392 38C1.408 47.28 5.184 54.832 14.784 54.832C22.784 54.832 28.992 49.456 31.936 42.544H22.464C20.864 44.72 18.816 45.552 16.768 45.552ZM50.546 24.112L50.994 21.936H42.034L35.25 53.936H44.21L48.114 35.376C48.818 32.048 52.018 30.32 54.77 30.32C57.586 30.32 60.018 32.048 59.314 35.376L55.41 53.936H64.37L68.274 35.376C70.322 25.904 65.202 21.168 59.058 21.168C56.242 21.168 53.17 22.128 50.546 24.112ZM93.436 29.616L95.1 22.064H88.38L90.236 13.168H81.276L79.42 22.064H75.004L73.34 29.616H77.756L75.26 41.584C72.892 52.592 80.124 54.256 84.796 54.256C86.78 54.256 88.316 53.936 88.316 53.936L90.172 44.976C90.172 44.976 88.764 45.424 87.292 45.424C85.5 45.424 83.516 44.72 84.22 41.584L86.716 29.616H93.436ZM110.206 45.552C107.134 45.552 104.702 43.696 105.918 38C107.134 32.176 110.333 30.448 113.406 30.448C115.582 30.448 117.246 31.216 117.822 33.52H127.294C127.358 26.48 123.582 21.168 115.39 21.168C105.79 21.168 98.8135 28.592 96.8295 38C94.8455 47.28 98.6215 54.832 108.222 54.832C116.222 54.832 122.43 49.456 125.374 42.544H115.902C114.302 44.72 112.253 45.552 110.206 45.552ZM151.999 29.616L153.663 22.064H146.943L148.799 13.168H139.839L137.983 22.064H133.567L131.903 29.616H136.319L133.823 41.584C131.455 52.592 138.687 54.256 143.359 54.256C145.343 54.256 146.878 53.936 146.878 53.936L148.735 44.976C148.735 44.976 147.327 45.424 145.855 45.424C144.062 45.424 142.079 44.72 142.783 41.584L145.279 29.616H151.999Z" fill="white"/>
</svg>
