<svg width="14" height="14" viewBox="0 0 14 14" fill="none" xmlns="http://www.w3.org/2000/svg">
<path d="M4.70711 0.292893C4.31658 -0.0976311 3.68342 -0.0976311 3.29289 0.292893C2.90237 0.683417 2.90237 1.31658 3.29289 1.70711L4.70711 0.292893ZM10 7L10.7071 7.70711C11.0976 7.31658 11.0976 6.68342 10.7071 6.29289L10 7ZM3.29289 12.2929C2.90237 12.6834 2.90237 13.3166 3.29289 13.7071C3.68342 14.0976 4.31658 14.0976 4.70711 13.7071L3.29289 12.2929ZM3.29289 1.70711L9.29289 7.70711L10.7071 6.29289L4.70711 0.292893L3.29289 1.70711ZM9.29289 6.29289L3.29289 12.2929L4.70711 13.7071L10.7071 7.70711L9.29289 6.29289Z" fill="white"/>
</svg>
