<svg width="14" height="14" viewBox="0 0 14 14" fill="none" xmlns="http://www.w3.org/2000/svg">
<path fill-rule="evenodd" clip-rule="evenodd" d="M6.10556 1.78886L0.723593 12.5528C0.391142 13.2177 0.874638 14 1.61802 14H12.382C13.1253 14 13.6088 13.2177 13.2764 12.5528L7.89441 1.78885C7.52589 1.05181 6.47408 1.05181 6.10556 1.78886ZM6 11C6 10.4477 6.44772 10 7 10C7.55228 10 8 10.4477 8 11C8 11.5523 7.55228 12 7 12C6.44772 12 6 11.5523 6 11ZM7 5C6.44772 5 6 5.44772 6 6V8C6 8.55228 6.44772 9 7 9C7.55228 9 8 8.55228 8 8V6C8 5.44772 7.55228 5 7 5Z" fill="white"/>
</svg>
